PathFileType	4	(X/Y/Z)	E:/Marcel_BSc/Hannes_22_01_2025/22-01-2025/static_01_hjc.trc	
DataRate	CameraRate	NumFrames	NumMarkers	Units	OrigDataRate	OrigDataStartFrame	OrigNumFrames	
200.00	200.00	4	72	mm	200.00	373	497	
Frame#	Time	FHD			LBHD			RBHD			RBAR			LBAR			RASI			RSACR			LSACR			LASI			USACR			C7			CLAV			T10			RSHO			LSHO			LTHI1			LTHI3			LTHI2			LLFC			LMFC			LTIB1			LTIB2			LTIB3			LMMAL			LLMAL			LHEE			LMT1			LMT5			LMT3			RTHI1			RTHI2			RTHI3			RLFC			RMFC			RTIB1			RTIB3			RTIB2			RLMAL			RMMAL			RHEE			RMT5			RMT1			RMT3			LMEP			LLEP			LDUPA			LMUPA			LUUPA			LUL			LRAD			LRFIN			RUL			RRAD			RUFIN			RMEP			RLEP			RMUPA			RDUPA			RUUPA			*59			*60			*61			*62			*63			*64			*65			RAJC			LAJC			LKJC			RKJC			LHJC			RHJC			
		X1	Y1	Z1	X2	Y2	Z2	X3	Y3	Z3	X4	Y4	Z4	X5	Y5	Z5	X6	Y6	Z6	X7	Y7	Z7	X8	Y8	Z8	X9	Y9	Z9	X10	Y10	Z10	X11	Y11	Z11	X12	Y12	Z12	X13	Y13	Z13	X14	Y14	Z14	X15	Y15	Z15	X16	Y16	Z16	X17	Y17	Z17	X18	Y18	Z18	X19	Y19	Z19	X20	Y20	Z20	X21	Y21	Z21	X22	Y22	Z22	X23	Y23	Z23	X24	Y24	Z24	X25	Y25	Z25	X26	Y26	Z26	X27	Y27	Z27	X28	Y28	Z28	X29	Y29	Z29	X30	Y30	Z30	X31	Y31	Z31	X32	Y32	Z32	X33	Y33	Z33	X34	Y34	Z34	X35	Y35	Z35	X36	Y36	Z36	X37	Y37	Z37	X38	Y38	Z38	X39	Y39	Z39	X40	Y40	Z40	X41	Y41	Z41	X42	Y42	Z42	X43	Y43	Z43	X44	Y44	Z44	X45	Y45	Z45	X46	Y46	Z46	X47	Y47	Z47	X48	Y48	Z48	X49	Y49	Z49	X50	Y50	Z50	X51	Y51	Z51	X52	Y52	Z52	X53	Y53	Z53	X54	Y54	Z54	X55	Y55	Z55	X56	Y56	Z56	X57	Y57	Z57	X58	Y58	Z58	X59	Y59	Z59	X60	Y60	Z60	X61	Y61	Z61	X62	Y62	Z62	X63	Y63	Z63	X64	Y64	Z64	X65	Y65	Z65	X66	Y66	Z66	X67	Y67	Z67	X68	Y68	Z68	X69	Y69	Z69	X70	Y70	Z70	X71	Y71	Z71	X72	Y72	Z72	

373	1.860	63.25246	1224.02820	1708.49939	147.58534	1122.83704	1680.48560	159.94849	1317.05872	1675.13635	-530.18604	2111.51318	25.84082	-499.41483	-112.26598	36.26296	110.39821	1330.06177	988.08722	302.85733	1256.25159	1050.30750	303.56860	1148.83960	1055.44934	116.62606	1061.12537	995.09930	304.11658	1201.82117	1074.59839	292.64926	1208.95508	1493.59875	122.24790	1208.93835	1449.95801	293.93082	1202.47778	1171.05945	272.10388	1368.46814	1484.65234	270.58469	1048.35315	1492.65125	212.66580	982.97015	791.92389	233.84383	982.32501	728.98914	183.80426	973.46912	732.02338	223.18518	998.71643	504.24280	206.54398	1106.61975	464.92133	269.16138	961.74207	267.90460	319.56516	966.70660	278.05945	305.99411	968.41754	214.15302	277.47858	1054.38989	86.26863	309.65118	966.03961	80.16628	354.48349	1015.31451	22.06382	142.82959	996.74445	39.99788	185.70189	915.66541	26.59426	149.06937	948.57178	30.09854	222.48631	1410.38623	782.09332	190.65254	1417.65430	724.32556	239.95703	1408.86670	718.22461	218.09486	1384.22424	494.64679	196.00963	1277.63879	477.39438	244.60153	1413.70044	277.30243	268.53577	1414.05933	215.69873	294.85562	1422.90942	274.32727	295.13080	1409.92456	79.98201	257.53311	1322.71997	83.35626	343.89828	1366.30981	30.22218	184.10936	1460.95215	27.38096	124.54613	1389.70154	36.01419	135.75571	1438.15308	28.37175	214.59422	771.21216	1358.74622	277.23566	763.96564	1449.34399	286.11804	830.81439	1442.69385	251.62006	889.53375	1484.33716	289.07373	892.04736	1451.38489	196.78418	521.83191	1482.50671	154.62866	536.36713	1503.13171	112.20473	435.89371	1493.73413	212.95222	1903.60291	1465.95361	169.22168	1885.23535	1489.89465	152.24725	1997.95654	1484.35901	229.36954	1639.91052	1350.86938	293.35504	1655.49609	1439.92334	308.45889	1550.28674	1426.33301	287.73425	1587.87830	1451.06653	288.24539	1511.19934	1471.40930	-514.49237	15.71067	46.87552	-534.05139	1926.75696	32.87806	-538.84985	1681.25098	41.85365				-506.32492	-31.62200	40.69070	-507.61169	-4.72603	40.39238				276.33195	1366.32227	81.66914	293.56488	1010.21475	83.21745	214.86458	1052.66809	484.58206	207.05225	1330.93152	486.02058	210.09733	1104.98248	1025.27432	206.62777	1293.15668	1019.19736 
374	1.865	63.27952	1224.04761	1708.48535	147.59793	1122.84619	1680.48120	159.95984	1317.06250	1675.13672	-530.27618	2111.27930	25.80262	-499.42786	-112.27201	36.26109	110.38945	1330.05579	988.08911	302.85382	1256.25293	1050.30444	303.56433	1148.83936	1055.45862	116.63632	1061.12183	995.09662	304.10294	1201.81458	1074.60168	292.64969	1208.96826	1493.59753	122.24606	1208.96619	1449.93689	293.91052	1202.47388	1171.05420	272.10239	1368.48840	1484.64563	270.57602	1048.35278	1492.64697	212.66312	982.97772	791.90771	233.83411	982.33258	728.97742	183.79779	973.46832	732.01758	223.19159	998.70819	504.25601	206.55182	1106.63159	464.91861	269.22360	961.73639	267.88293	319.56589	966.71814	278.03851	305.99704	968.42017	214.15318	277.47357	1054.38489	86.27296	309.65811	966.03320	80.16954	354.47229	1015.30975	22.06513	142.82204	996.73041	39.99603	185.70427	915.65875	26.59836	149.07553	948.57593	30.07466	222.50058	1410.38989	782.09052	190.66159	1417.65332	724.32410	239.95045	1408.87097	718.22400	218.09662	1384.22949	494.65536	196.00209	1277.63428	477.39044	244.71638	1414.09387	277.33163	268.54602	1414.06897	215.68343	294.86996	1422.92249	274.33066	295.12274	1409.91333	79.97712	257.53159	1322.71338	83.35740	343.88275	1366.35706	30.20132	184.08035	1460.89063	27.29595	124.53857	1389.70251	36.01903	135.75839	1438.14978	28.35861	214.55991	771.22369	1358.77075	277.26172	764.03162	1449.48083	286.12366	830.87744	1442.84363	251.58780	889.54413	1484.35620	289.05011	892.04498	1451.40039	196.72696	521.84253	1482.53992	154.55467	536.37860	1503.16943	112.14613	435.91714	1493.76465	212.90253	1903.56128	1465.95911	169.17601	1885.25537	1489.86230	152.21526	1997.98511	1484.31323	229.84419	1640.26917	1350.62219	293.35010	1655.50476	1439.94043	308.46710	1550.30212	1426.33643	287.72772	1587.88757	1451.09167	288.25095	1511.19873	1471.40076										-535.93799	1937.54749	33.02814							-507.45648	-22.15867	40.86244	276.32716	1366.31335	81.66726	293.56584	1010.20905	83.22125	214.87170	1052.66989	484.58731	207.04935	1330.93188	486.02290	210.10033	1104.98059	1025.27762	206.62164	1293.15436	1019.19678 
375	1.870	63.27137	1224.03467	1708.50159	147.61533	1122.85718	1680.48682	159.95253	1317.07727	1675.14319	-530.26648	2111.40625	25.78717	-499.42496	-112.26882	36.26633	110.39185	1330.04602	988.07965	302.85095	1256.24280	1050.30603	303.55826	1148.82947	1055.46179	116.64859	1061.11047	995.08289	304.10373	1201.81238	1074.58789	292.64023	1208.98767	1493.59521	122.23965	1208.98767	1449.92505	293.88956	1202.46826	1171.05042	272.09692	1368.49451	1484.63379	270.55939	1048.37292	1492.64514	212.66402	982.97247	791.89374	233.86569	982.31982	728.97278	183.80627	973.45764	732.01489	223.21523	998.70618	504.22720	206.56686	1106.64294	464.91705	269.18726	961.70618	267.89163	319.57877	966.69568	278.04880	305.99103	968.39606	214.16370	277.47589	1054.39343	86.27409	309.64111	966.02673	80.16919	354.49298	1015.30786	22.04859	142.82481	996.73541	39.99689	185.70172	915.66089	26.59058	149.07159	948.56793	30.07705	222.50563	1410.38501	782.09125	190.67311	1417.64539	724.32581	240.06783	1408.99280	717.88177	218.10075	1384.22815	494.65826	196.01228	1277.61572	477.40067	244.72002	1414.10730	277.31561	268.53821	1414.05322	215.70216	294.86542	1422.91956	274.32629	295.13388	1409.92517	79.96560	257.52155	1322.71436	83.35511	343.88229	1366.34570	30.22204	184.07794	1460.89624	27.28819	124.54774	1389.70728	36.00660	135.75494	1438.15601	28.36497	214.53127	771.23090	1358.79712	277.22580	764.03864	1449.49841	286.07751	830.87653	1442.86804	251.54144	889.55719	1484.37097	289.02066	892.05835	1451.41028	196.65428	521.86188	1482.55872	154.48665	536.40430	1503.19653	112.06523	435.93149	1493.78943	212.86732	1903.52637	1465.96570	169.15485	1885.26172	1489.83398	152.18631	1997.98926	1484.27051	229.87114	1640.27417	1350.62219	293.34396	1655.51208	1439.94897	308.46439	1550.31458	1426.35522	287.70807	1587.88208	1451.13318	288.23743	1511.19763	1471.40527										-536.16913	1937.78088	32.96113							-507.39822	-22.14278	40.84667	276.32771	1366.31976	81.66035	293.55850	1010.21008	83.22164	214.89104	1052.67456	484.57213	207.05652	1330.92194	486.02946	210.10342	1104.96997	1025.27234	206.62140	1293.14441	1019.19284 
376	1.875	63.26785	1224.03589	1708.51086	147.60652	1122.87231	1680.48450	159.95871	1317.08948	1675.13672	-530.21167	2111.49170	25.85744	-499.41614	-112.26865	36.27212	110.39983	1330.03699	988.06866	302.85233	1256.23975	1050.30640	303.54999	1148.81677	1055.45996	116.63497	1061.11182	995.06635	304.09711	1201.80615	1074.58972	292.62927	1208.98718	1493.59912	122.22977	1209.00903	1449.90137	293.88345	1202.45972	1171.05847	272.11359	1368.49866	1484.63342	270.53574	1048.39197	1492.64502	212.65869	982.95660	791.91272	233.84842	982.30957	728.96948	183.80106	973.46521	732.01550	223.21622	998.70001	504.23685	206.58406	1106.63379	464.91748	269.22159	961.73181	267.85504	319.80298	966.35443	278.30994	306.00150	968.40460	214.17894	277.47021	1054.38684	86.28326	309.64200	966.01740	80.17774	354.46967	1015.29126	22.05502	142.82104	996.73230	40.00214	185.69467	915.66608	26.58972	149.07050	948.56512	30.08792	222.50090	1410.38281	782.08954	190.67976	1417.64124	724.31158	240.06482	1408.98840	717.89105	218.11272	1384.23340	494.65543	196.01057	1277.61145	477.39761	244.72331	1414.09070	277.33301	268.53812	1414.06519	215.69560	294.85513	1422.91406	274.32892	295.13486	1409.92273	79.97824	257.51462	1322.70325	83.34238	343.88016	1366.31665	30.20840	184.11356	1460.95142	27.36371	124.54516	1389.71021	35.99987	135.75003	1438.14282	28.36804	214.49530	771.26056	1358.80823	277.18176	764.04761	1449.52966	286.03769	830.88843	1442.90845	251.51764	889.57788	1484.39429	288.97977	892.08459	1451.41833	196.59537	521.87506	1482.59558	154.42645	536.42474	1503.23132	112.00987	435.94897	1493.82019	212.82887	1903.52246	1465.96594	169.11029	1885.25854	1489.81140	152.14508	1998.00793	1484.23193	229.87817	1640.28540	1350.61511	293.32919	1655.52881	1439.96106	308.45602	1550.32568	1426.37659	287.67282	1587.89880	1451.14563	288.22198	1511.19690	1471.42358	-506.20480	-31.58584	40.68179	-538.87366	1682.36096	42.85366	-513.90778	16.23860	46.62620	-536.17096	1937.79370	32.96190										276.32474	1366.31299	81.66031	293.55611	1010.20212	83.23050	214.90014	1052.66690	484.57716	207.06165	1330.92242	486.02652	210.09248	1104.96429	1025.26315	206.62608	1293.13837	1019.18753 
